# xmcd
#
# Track frame offsets:
#	150
#	18062
#	39294
#	51227
#	66310
#	85185
#	110755
#	134392
#	156417
#	178820
#	197175
#	214202
#
# Disc length: 3153 seconds
#
# Revision: 1
# Processed by: cddbd v1.5.2PL0 Copyright (c) Steve Scherf et al.
# Submitted via: EZCDAudioConverter 7.1.0.1
#
DISCID=ad0c4f0c
DTITLE=周杰伦 - Initial J
DYEAR=2005
DGENRE=
TTITLE0=可愛い女(ひと)/可爱女人
TTITLE1=ブラックユーモア/黑色幽默
TTITLE2=忍者
TTITLE3=ヌンチャク/双截棍
TTITLE4=最後の戦い/最后的战役
TTITLE5=父の名で/以父之名
TTITLE6=東風吹かば/东风破
TTITLE7=二刀流/双刀
TTITLE8=シルクジャスミン/七里香
TTITLE9=おばあちゃん/外婆
TTITLE10=Drifting/飄移「头文字 D THE MOVIE」オリジナル主题曲
TTITLE11=All The Way North/一路向北「头文字 D THE MOVIE」オリジナル插入曲
EXTD=
EXTT0=
EXTT1=
EXTT2=
EXTT3=
EXTT4=
EXTT5=
EXTT6=
EXTT7=
EXTT8=
EXTT9=
EXTT10=
EXTT11=
PLAYORDER=
